<svg width="90" height="90" viewBox="0 0 90 90" fill="none" xmlns="http://www.w3.org/2000/svg">
<path d="M35.5 6.63953C41.3786 3.2455 48.6214 3.2455 54.5 6.63953L73.4711 17.5925C79.3498 20.9865 82.9711 27.259 82.9711 34.047V55.953C82.9711 62.741 79.3498 69.0135 73.4711 72.4075L54.5 83.3605C48.6214 86.7545 41.3786 86.7545 35.5 83.3605L16.5289 72.4075C10.6502 69.0135 7.02886 62.741 7.02886 55.953V34.047C7.02886 27.259 10.6502 20.9865 16.5289 17.5925L35.5 6.63953Z" fill="white" stroke="black" stroke-width="2"/>
<path opacity="0.3" d="M51.2806 28.875H38.2194C32.9205 28.875 28.625 33.1684 28.625 38.4646V51.5354C28.625 56.8316 32.9205 61.125 38.2194 61.125H51.2806C56.5795 61.125 60.875 56.8316 60.875 51.5354V38.4646C60.875 33.1684 56.5795 28.875 51.2806 28.875Z" fill="black"/>
<path d="M36.6872 43.1067C36.3907 43.1027 36.1052 42.9943 35.8809 42.8004L33.7202 40.8503C33.4739 40.6277 33.3244 40.3179 33.3033 39.9868C33.2822 39.6556 33.3913 39.3294 33.6073 39.0774C33.7112 38.9517 33.8394 38.8482 33.9843 38.7733C34.1292 38.6984 34.2878 38.6536 34.4505 38.6416C34.6132 38.6295 34.7767 38.6505 34.931 38.7033C35.0854 38.756 35.2275 38.8394 35.3488 38.9485L36.4614 39.9316L38.4287 36.7082C38.5129 36.5679 38.6244 36.4459 38.7565 36.3494C38.8887 36.2529 39.0389 36.1838 39.1982 36.1462C39.3575 36.1087 39.5228 36.1034 39.6842 36.1307C39.8456 36.158 39.9999 36.2174 40.1379 36.3053C40.4112 36.4923 40.6032 36.7761 40.6751 37.0993C40.7469 37.4225 40.6932 37.7608 40.5249 38.0459L37.7837 42.462C37.6931 42.6193 37.5674 42.7535 37.4164 42.8541C37.2653 42.9548 37.093 43.0191 36.9129 43.0422L36.6872 43.1067ZM55.5857 40.5763C55.5905 40.2579 55.4726 39.9498 55.2565 39.7158C55.0404 39.4818 54.7426 39.3398 54.4247 39.3192H44.7497C44.4726 39.3831 44.2253 39.5391 44.0483 39.7615C43.8713 39.984 43.7749 40.2598 43.7749 40.5441C43.7749 40.8283 43.8713 41.1042 44.0483 41.3266C44.2253 41.5491 44.4726 41.705 44.7497 41.7689H54.4247C54.7316 41.7492 55.0203 41.6163 55.2348 41.3959C55.4493 41.1756 55.5743 40.8835 55.5857 40.5763ZM36.8645 51.8582C37.0307 51.8519 37.1938 51.8114 37.3436 51.7393C37.4934 51.6672 37.6268 51.565 37.7353 51.4391L40.4765 47.007C40.6488 46.7229 40.7047 46.3833 40.6326 46.059C40.5605 45.7347 40.366 45.4508 40.0895 45.2663C39.9515 45.1784 39.7972 45.1191 39.6358 45.0917C39.4744 45.0644 39.3092 45.0697 39.1498 45.1073C38.9905 45.1448 38.8403 45.2139 38.7082 45.3104C38.576 45.4069 38.4645 45.5289 38.3803 45.6692L36.413 48.8926L35.3004 47.9095C35.1791 47.8004 35.037 47.717 34.8827 47.6643C34.7283 47.6115 34.5648 47.5905 34.4021 47.6026C34.2394 47.6146 34.0809 47.6595 33.936 47.7344C33.791 47.8093 33.6628 47.9127 33.5589 48.0384C33.3467 48.2921 33.2401 48.6175 33.2612 48.9474C33.2822 49.2773 33.4292 49.5866 33.6718 49.8113L35.8809 51.6486C36.1052 51.8425 36.3907 51.951 36.6872 51.9549L36.8645 51.8582ZM55.634 49.3439C55.6064 49.0402 55.4678 48.7573 55.2447 48.5492C55.0217 48.3411 54.7297 48.2224 54.4247 48.2157H44.7497C44.4161 48.2157 44.0962 48.3482 43.8603 48.5839C43.6244 48.8197 43.4919 49.1394 43.4919 49.4728C43.4919 49.8063 43.6244 50.126 43.8603 50.3618C44.0962 50.5975 44.4161 50.73 44.7497 50.73H54.4247C54.5906 50.7259 54.754 50.6886 54.9052 50.6203C55.0564 50.5521 55.1924 50.4542 55.3052 50.3325C55.4179 50.2108 55.5051 50.0677 55.5616 49.9118C55.6181 49.7558 55.6427 49.5901 55.634 49.4245V49.3439Z" fill="black"/>
</svg>
