<svg width="90" height="90" viewBox="0 0 90 90" fill="none" xmlns="http://www.w3.org/2000/svg">
    <path d="M35.5 6.63953C41.3786 3.2455 48.6214 3.2455 54.5 6.63953L73.4711 17.5925C79.3498 20.9865 82.9711 27.259 82.9711 34.047V55.953C82.9711 62.741 79.3498 69.0135 73.4711 72.4075L54.5 83.3605C48.6214 86.7545 41.3786 86.7545 35.5 83.3605L16.5289 72.4075C10.6502 69.0135 7.02886 62.741 7.02886 55.953V34.047C7.02886 27.259 10.6502 20.9865 16.5289 17.5925L35.5 6.63953Z" fill="white" stroke="#17C653" stroke-width="2"/>
    <path opacity="0.3" d="M51.7017 30.5061H38.7859C33.5581 30.5061 29.3201 34.7441 29.3201 39.9719V52.7837C29.3201 58.0116 33.5581 62.2496 38.7859 62.2496H51.7017C56.9296 62.2496 61.1676 58.0116 61.1676 52.7837V39.9719C61.1676 34.7441 56.9296 30.5061 51.7017 30.5061Z" fill="#17C653"/>
    <path fill-rule="evenodd" clip-rule="evenodd" d="M38.9069 33.5231C38.5621 33.5231 38.2314 33.3861 37.9875 33.1423C37.7437 32.8984 37.6067 32.5677 37.6067 32.2229V29.0503C37.6067 28.7054 37.7437 28.3747 37.9875 28.1308C38.2314 27.887 38.5621 27.75 38.9069 27.75C39.2518 27.75 39.5825 27.887 39.8264 28.1308C40.0702 28.3747 40.2072 28.7054 40.2072 29.0503V32.2229C40.2072 32.5677 40.0702 32.8984 39.8264 33.1423C39.5825 33.3861 39.2518 33.5231 38.9069 33.5231ZM54.4317 41.8664C54.4977 42.0303 54.5306 42.2058 54.5283 42.3825C54.5306 42.5593 54.4977 42.7347 54.4317 42.8987C54.3656 43.0627 54.2677 43.2119 54.1435 43.3377C54.0193 43.4635 53.8713 43.5634 53.7082 43.6315C53.5451 43.6997 53.3701 43.7348 53.1934 43.7348H37.3476C36.989 43.7348 36.645 43.5923 36.3914 43.3387C36.1378 43.0851 35.9954 42.7412 35.9954 42.3825C35.9954 42.0239 36.1378 41.6799 36.3914 41.4263C36.645 41.1727 36.989 41.0303 37.3476 41.0303H53.1934C53.3701 41.0303 53.5451 41.0654 53.7082 41.1335C53.8713 41.2017 54.0193 41.3016 54.1435 41.4274C54.2677 41.5532 54.3656 41.7024 54.4317 41.8664ZM48.8507 50.3305C48.9156 50.4934 48.9479 50.6674 48.9456 50.8427C48.9479 51.018 48.9156 51.1921 48.8507 51.3549C48.7857 51.5178 48.6893 51.6662 48.5669 51.7918C48.4446 51.9174 48.2987 52.0176 48.1376 52.0868C47.9765 52.156 47.8033 52.1927 47.628 52.195H37.434C37.0754 52.195 36.7315 52.0525 36.4779 51.7989C36.2243 51.5453 36.0818 51.2014 36.0818 50.8427C36.0818 50.4841 36.2243 50.1401 36.4779 49.8865C36.7315 49.6329 37.0754 49.4905 37.434 49.4905H47.628C47.8033 49.4927 47.9765 49.5295 48.1376 49.5987C48.2987 49.6679 48.4446 49.7681 48.5669 49.8937C48.6893 50.0193 48.7857 50.1677 48.8507 50.3305ZM51.063 33.4289C51.2218 33.4934 51.3919 33.5254 51.5633 33.5231C51.9082 33.5231 52.2389 33.3861 52.4827 33.1423C52.7266 32.8984 52.8636 32.5677 52.8636 32.2229V29.0503C52.8636 28.7054 52.7266 28.3747 52.4827 28.1308C52.2389 27.887 51.9082 27.75 51.5633 27.75C51.2185 27.75 50.8877 27.887 50.6439 28.1308C50.4 28.3747 50.2631 28.7054 50.2631 29.0503V32.2229C50.2607 32.3943 50.2928 32.5644 50.3573 32.7232C50.4218 32.882 50.5175 33.0263 50.6387 33.1475C50.7599 33.2687 50.9042 33.3644 51.063 33.4289Z" fill="#17C653"/>
</svg>
