<svg width="90" height="90" viewBox="0 0 90 90" fill="none" xmlns="http://www.w3.org/2000/svg">
    <path d="M35.5 6.63953C41.3786 3.2455 48.6214 3.2455 54.5 6.63953L73.4711 17.5925C79.3498 20.9865 82.9711 27.259 82.9711 34.047V55.953C82.9711 62.741 79.3498 69.0135 73.4711 72.4075L54.5 83.3605C48.6214 86.7545 41.3786 86.7545 35.5 83.3605L16.5289 72.4075C10.6502 69.0135 7.02886 62.741 7.02886 55.953V34.047C7.02886 27.259 10.6502 20.9865 16.5289 17.5925L35.5 6.63953Z" fill="white" stroke="#1B84FF" stroke-width="2"/>
    <path fill-rule="evenodd" clip-rule="evenodd" d="M49.0505 45.3374C49.0505 48.4595 46.5195 50.9905 43.3974 50.9905C40.2753 50.9905 37.7443 48.4595 37.7443 45.3374C37.7443 42.2153 40.2753 39.6843 43.3974 39.6843C46.5195 39.6843 49.0505 42.2153 49.0505 45.3374ZM50.4175 57.4374C50.4175 59.8884 47.2746 61.8754 43.3976 61.8754C39.5206 61.8754 36.3777 59.8884 36.3777 57.4374C36.3777 54.9863 39.5206 52.9993 43.3976 52.9993C47.2746 52.9993 50.4175 54.9863 50.4175 57.4374Z" fill="#1B84FF"/>
    <path opacity="0.3" fill-rule="evenodd" clip-rule="evenodd" d="M34.4037 37.6424C37.0319 37.6424 39.1624 35.5119 39.1624 32.8837C39.1624 30.2555 37.0319 28.125 34.4037 28.125C31.7756 28.125 29.645 30.2555 29.645 32.8837C29.645 35.5119 31.7756 37.6424 34.4037 37.6424ZM52.3413 37.6424C54.9695 37.6424 57.1 35.5119 57.1 32.8837C57.1 30.2555 54.9695 28.125 52.3413 28.125C49.7132 28.125 47.5826 30.2555 47.5826 32.8837C47.5826 35.5119 49.7132 37.6424 52.3413 37.6424ZM50.4849 41.4231C51.008 41.3387 51.5311 41.3387 52.0711 41.3387C56.3573 41.3387 59.8335 43.4143 59.8335 45.9455C59.8335 48.4768 56.3742 50.5524 52.088 50.5524C51.3173 50.5449 50.549 50.4658 49.793 50.3161C50.7911 49.0762 51.3912 47.5636 51.5147 45.9766C51.6382 44.3897 51.2792 42.8025 50.4849 41.4231Z" fill="#1B84FF"/>
</svg>
