<svg width="90" height="90" viewBox="0 0 90 90" fill="none" xmlns="http://www.w3.org/2000/svg">
<path d="M35.5 6.63953C41.3786 3.2455 48.6214 3.2455 54.5 6.63953L73.4711 17.5925C79.3498 20.9865 82.9711 27.259 82.9711 34.047V55.953C82.9711 62.741 79.3498 69.0135 73.4711 72.4075L54.5 83.3605C48.6214 86.7545 41.3786 86.7545 35.5 83.3605L16.5289 72.4075C10.6502 69.0135 7.02886 62.741 7.02886 55.953V34.047C7.02886 27.259 10.6502 20.9865 16.5289 17.5925L35.5 6.63953Z" fill="white" stroke="#7239EA" stroke-width="2"/>
<path opacity="0.3" d="M51.7789 28.89H38.7211C33.4213 28.89 29.125 33.1863 29.125 38.4861V51.4956C29.125 56.7954 33.4213 61.0917 38.7211 61.0917H51.7789C57.0787 61.0917 61.375 56.7954 61.375 51.4956V38.4861C61.375 33.1863 57.0787 28.89 51.7789 28.89Z" fill="#7239EA"/>
<path fill-rule="evenodd" clip-rule="evenodd" d="M53.4859 39.7911C53.3246 39.7911 53.1649 39.7589 53.0163 39.6962C52.8676 39.6335 52.733 39.5416 52.6205 39.4261C52.5079 39.3105 52.4196 39.1736 52.3609 39.0233C52.3021 38.8731 52.2741 38.7126 52.2784 38.5513V38.1346C46.002 44.8371 38.8413 45.12 38.496 45.12H38.4799C38.1651 45.1201 37.8628 44.9973 37.6372 44.7777C37.4117 44.5582 37.2807 44.2593 37.2723 43.9446C37.2636 43.7863 37.2871 43.6278 37.3412 43.4788C37.3954 43.3297 37.4791 43.1932 37.5874 43.0773C37.6957 42.9615 37.8264 42.8688 37.9714 42.8048C38.1165 42.7408 38.273 42.7068 38.4316 42.7048C38.7415 42.7048 45.326 42.4073 50.9847 35.9752H49.7344C49.4142 35.9752 49.107 35.8479 48.8806 35.6215C48.6541 35.395 48.5269 35.0879 48.5269 34.7676C48.5269 34.4473 48.6541 34.1402 48.8806 33.9137C49.107 33.6873 49.4142 33.56 49.7344 33.56H53.4859C53.6451 33.5579 53.8031 33.5876 53.9506 33.6476C54.0981 33.7075 54.2321 33.7963 54.3446 33.9089C54.4572 34.0215 54.5461 34.1555 54.606 34.3029C54.6659 34.4504 54.6957 34.6084 54.6935 34.7676V38.5513C54.7001 38.7132 54.6736 38.8746 54.6157 39.0259C54.5577 39.1772 54.4696 39.315 54.3565 39.4311C54.2435 39.5471 54.108 39.6389 53.9583 39.7008C53.8086 39.7627 53.6479 39.7934 53.4859 39.7911ZM52.6359 56.4515C52.8615 56.6771 53.1662 56.8057 53.4852 56.8098C53.8054 56.8098 54.1126 56.6826 54.3391 56.4562C54.5655 56.2297 54.6927 55.9226 54.6927 55.6023V44.6215C54.6927 44.3012 54.5655 43.9941 54.3391 43.7676C54.1126 43.5412 53.8054 43.4139 53.4852 43.4139C53.1649 43.4139 52.8578 43.5412 52.6313 43.7676C52.4048 43.9941 52.2776 44.3012 52.2776 44.6215V55.6023C52.2818 55.9213 52.4103 56.226 52.6359 56.4515ZM45.8375 56.8092C45.5173 56.8092 45.2101 56.6819 44.9836 56.4555C44.7572 56.229 44.63 55.9219 44.63 55.6016V48.9198C44.63 48.5995 44.7572 48.2923 44.9836 48.0659C45.2101 47.8394 45.5173 47.7122 45.8375 47.7122C46.1578 47.7122 46.4649 47.8394 46.6914 48.0659C46.9179 48.2923 47.0451 48.5995 47.0451 48.9198V55.6016C47.0409 55.9206 46.9123 56.2253 46.6868 56.4509C46.4612 56.6764 46.1565 56.805 45.8375 56.8092ZM38.0772 56.8088C37.7582 56.8047 37.4535 56.6761 37.2279 56.4505C37.0024 56.225 36.8738 55.9202 36.8696 55.6013V50.9803C36.8696 50.6601 36.9969 50.3529 37.2233 50.1264C37.4498 49.9 37.7569 49.7728 38.0772 49.7728C38.3975 49.7728 38.7046 49.9 38.9311 50.1264C39.1575 50.3529 39.2848 50.6601 39.2848 50.9803V55.6013C39.2848 55.9215 39.1575 56.2287 38.9311 56.4551C38.7046 56.6816 38.3975 56.8088 38.0772 56.8088Z" fill="#7239EA"/>
</svg>
