<svg width="90" height="90" viewBox="0 0 90 90" fill="none" xmlns="http://www.w3.org/2000/svg">
<path d="M35.5 6.63953C41.3786 3.2455 48.6214 3.2455 54.5 6.63953L73.4711 17.5925C79.3498 20.9865 82.9711 27.259 82.9711 34.047V55.953C82.9711 62.741 79.3498 69.0135 73.4711 72.4075L54.5 83.3605C48.6214 86.7545 41.3786 86.7545 35.5 83.3605L16.5289 72.4075C10.6502 69.0135 7.02886 62.741 7.02886 55.953V34.047C7.02886 27.259 10.6502 20.9865 16.5289 17.5925L35.5 6.63953Z" fill="white" stroke="#1E2129" stroke-width="2"/>
<path opacity="0.3" d="M55.3867 28.5H34.6133C33.305 28.4998 32.049 28.9953 31.1159 29.8796C30.1828 30.764 29.6474 31.9664 29.625 33.2279V51.3487C29.625 52.6244 30.1506 53.8479 31.086 54.75C32.0215 55.6521 33.2903 56.1589 34.6133 56.1589H36.5608C37.084 56.1553 37.6021 56.2575 38.0817 56.459C38.5614 56.6604 38.9919 56.9567 39.3454 57.3285L42.2496 60.3596C42.6054 60.72 43.0334 61.0069 43.5077 61.2029C43.9819 61.3989 44.4926 61.5 45.0085 61.5C45.5245 61.5 46.0351 61.3989 46.5094 61.2029C46.9837 61.0069 47.4117 60.72 47.7675 60.3596L50.8596 57.2297C51.213 56.8745 51.6374 56.5921 52.1072 56.3995C52.577 56.207 53.0824 56.1083 53.5929 56.1095H55.3013C55.9592 56.1204 56.6129 56.0056 57.2246 55.7719C57.8364 55.5381 58.3941 55.1899 58.8657 54.7474C59.3373 54.3049 59.7135 53.7768 59.9725 53.1935C60.2316 52.6101 60.3683 51.9832 60.375 51.3487V33.2279C60.3526 31.9664 59.8172 30.764 58.8841 29.8796C57.951 28.9953 56.695 28.4998 55.3867 28.5Z" fill="black"/>
<path d="M51.6287 40.1965H48.3145C48.1732 40.1935 48.0343 40.1613 47.907 40.1023C47.7797 40.0432 47.667 39.9586 47.5764 39.854C47.4858 39.7495 47.4194 39.6275 47.3817 39.4962C47.344 39.3649 47.3359 39.2274 47.3578 39.0928L47.7849 36.7371C47.8545 36.3404 47.7814 35.9328 47.5776 35.5817C47.3738 35.2307 47.0516 34.9575 46.6645 34.8074C46.2774 34.6573 45.8488 34.6395 45.4497 34.7567C45.0507 34.874 44.7052 35.1194 44.4707 35.4522L41.242 40.1636V39.1916C41.2422 39.0215 41.2065 38.8532 41.137 38.6968C41.0676 38.5404 40.9658 38.3994 40.8379 38.2822C40.71 38.1651 40.5587 38.0743 40.3932 38.0154C40.2277 37.9565 40.0515 37.9307 39.8753 37.9397H38.167C37.8226 37.9397 37.4924 38.0716 37.2489 38.3064C37.0054 38.5411 36.8687 38.8596 36.8687 39.1916V47.6425C36.8687 47.9746 37.0054 48.293 37.2489 48.5278C37.4924 48.7626 37.8226 48.8945 38.167 48.8945H39.8753C40.2197 48.8945 40.5499 48.7626 40.7934 48.5278C41.0369 48.293 41.1737 47.9746 41.1737 47.6425V47.7743L43.3262 49.4216C43.8146 49.7557 44.4017 49.929 45.0003 49.9158H49.1345C49.5197 49.9074 49.8924 49.7819 50.1992 49.557C50.506 49.3322 50.7313 49.0196 50.8428 48.6639L52.9612 42.0745C53.036 41.8654 53.059 41.6424 53.0284 41.4232C52.9978 41.204 52.9144 40.9947 52.7849 40.8122C52.6554 40.6297 52.4834 40.4789 52.2826 40.372C52.0818 40.2651 51.8578 40.205 51.6287 40.1965Z" fill="black"/>
</svg>
