<svg width="28" height="29" viewBox="0 0 28 29" fill="none" xmlns="http://www.w3.org/2000/svg">
    <path d="M23.5993 6.87093H4.34929C3.50051 6.88464 2.69106 7.23753 2.09562 7.85343C1.50019 8.46933 1.16652 9.29885 1.16663 10.163V16.0155C1.16663 16.7084 1.43704 17.373 1.91839 17.863C2.39973 18.353 3.05257 18.6282 3.73329 18.6282H24.2666C24.9474 18.6282 25.6002 18.353 26.0815 17.863C26.5629 17.373 26.8333 16.7084 26.8333 16.0155V10.163C26.8333 9.28987 26.4926 8.45252 25.8861 7.83514C25.2796 7.21777 24.457 6.87093 23.5993 6.87093ZM16.2458 17.0345H12.614C12.3587 17.0345 12.1139 16.9312 11.9334 16.7475C11.7529 16.5638 11.6515 16.3145 11.6515 16.0547C11.6515 15.7948 11.7529 15.5456 11.9334 15.3619C12.1139 15.1781 12.3587 15.0749 12.614 15.0749H16.2458C16.5011 15.0749 16.7459 15.1781 16.9264 15.3619C17.1069 15.5456 17.2083 15.7948 17.2083 16.0547C17.2083 16.3145 17.1069 16.5638 16.9264 16.7475C16.7459 16.9312 16.5011 17.0345 16.2458 17.0345ZM3.00179 18.5107C2.8105 18.4515 2.62561 18.3727 2.44996 18.2755C2.62814 18.3672 2.81256 18.4458 3.00179 18.5107ZM25.55 18.2755C25.3743 18.3727 25.1894 18.4515 24.9981 18.5107C25.1874 18.4458 25.3718 18.3672 25.55 18.2755ZM3.09163 18.5368C3.30107 18.5937 3.51655 18.6244 3.73329 18.6282C3.5161 18.6308 3.29977 18.6 3.09163 18.5368ZM25.55 20.3788V23.714C25.55 24.407 25.2795 25.0715 24.7982 25.5615C24.3169 26.0515 23.664 26.3268 22.9833 26.3268H5.01663C4.3359 26.3268 3.68306 26.0515 3.20172 25.5615C2.72038 25.0715 2.44996 24.407 2.44996 23.714V20.3788C2.86472 20.5148 3.29753 20.5853 3.73329 20.5878H24.2666C24.7024 20.5853 25.1352 20.5148 25.55 20.3788ZM24.2666 18.6282C24.4834 18.6244 24.6988 18.5937 24.9083 18.5368C24.7002 18.6 24.4838 18.6308 24.2666 18.6282ZM18.235 7.8507C17.9797 7.8507 17.7349 7.74748 17.5544 7.56373C17.3739 7.37999 17.2725 7.13078 17.2725 6.87093V6.00872C17.2725 5.66225 17.1373 5.32997 16.8966 5.08498C16.6559 4.83999 16.3295 4.70235 15.9891 4.70235H12.9091C12.5688 4.70235 12.2423 4.83999 12.0017 5.08498C11.761 5.32997 11.6258 5.66225 11.6258 6.00872V6.83174C11.6258 7.09159 11.5244 7.3408 11.3439 7.52454C11.1634 7.70829 10.9186 7.81151 10.6633 7.81151C10.408 7.81151 10.1632 7.70829 9.9827 7.52454C9.8022 7.3408 9.70079 7.09159 9.70079 6.83174V6.00872C9.70079 5.13562 10.0415 4.29827 10.648 3.68089C11.2545 3.06351 12.0771 2.71667 12.9348 2.71667H15.9763C16.8318 2.72013 17.6511 3.0685 18.2548 3.6855C18.8585 4.3025 19.1975 5.13788 19.1975 6.00872V6.83174C19.2026 6.96366 19.1816 7.09529 19.1355 7.21873C19.0895 7.34216 19.0194 7.45485 18.9295 7.55002C18.8396 7.64519 18.7318 7.72089 18.6124 7.77256C18.4931 7.82423 18.3647 7.85081 18.235 7.8507Z" fill="#F8285A" />
</svg>
