<svg width="28" height="29" viewBox="0 0 28 29" fill="none" xmlns="http://www.w3.org/2000/svg">
    <path opacity="0.3" d="M24.0334 17.8412H3.96671C3.30146 17.8412 2.66345 17.5769 2.19305 17.1065C1.72264 16.6361 1.45837 15.9981 1.45837 15.3329V9.71421C1.45837 8.87599 1.79135 8.07211 2.38406 7.4794C2.97677 6.88669 3.78066 6.55371 4.61887 6.55371H23.4314C24.2609 6.56688 25.0519 6.90566 25.6338 7.49695C26.2157 8.08824 26.5418 8.88461 26.5417 9.71421V15.3329C26.5417 15.9981 26.2774 16.6361 25.807 17.1065C25.3366 17.5769 24.6986 17.8412 24.0334 17.8412Z" fill="#F8285A" />
    <path fill-rule="evenodd" clip-rule="evenodd" d="M17.4735 7.21831C17.6499 7.39471 17.8892 7.49382 18.1387 7.49382C18.2654 7.49392 18.3909 7.4684 18.5075 7.41879C18.6242 7.36919 18.7296 7.29652 18.8174 7.20515C18.9053 7.11378 18.9738 7.00559 19.0188 6.88709C19.0638 6.76859 19.0844 6.64222 19.0793 6.51557V5.72544C19.0793 4.88939 18.748 4.0874 18.158 3.49505C17.568 2.9027 16.7674 2.56826 15.9313 2.56494H12.9589C12.1207 2.56494 11.3168 2.89792 10.7241 3.49063C10.1314 4.08334 9.79845 4.88722 9.79845 5.72544V6.51557C9.79845 6.76504 9.89755 7.00429 10.074 7.18069C10.2504 7.35709 10.4896 7.45619 10.7391 7.45619C10.9885 7.45619 11.2278 7.35709 11.4042 7.18069C11.5806 7.00429 11.6797 6.76504 11.6797 6.51557V5.72544C11.6797 5.39282 11.8118 5.07381 12.047 4.83861C12.2822 4.60341 12.6012 4.47127 12.9339 4.47127H15.9439C16.2765 4.47127 16.5955 4.60341 16.8307 4.83861C17.0659 5.07381 17.198 5.39282 17.198 5.72544V6.55319C17.198 6.80266 17.2971 7.04191 17.4735 7.21831ZM16.1943 16.3107H12.6451C12.3956 16.3107 12.1563 16.2116 11.9799 16.0352C11.8035 15.8588 11.7044 15.6196 11.7044 15.3701C11.7044 15.1206 11.8035 14.8814 11.9799 14.705C12.1563 14.5286 12.3956 14.4295 12.6451 14.4295H16.1943C16.4438 14.4295 16.6831 14.5286 16.8595 14.705C17.0359 14.8814 17.135 15.1206 17.135 15.3701C17.135 15.6196 17.0359 15.8588 16.8595 16.0352C16.6831 16.2116 16.4438 16.3107 16.1943 16.3107ZM24.033 17.8406H3.96632C3.52579 17.8399 3.09322 17.7231 2.71216 17.502V23.9365C2.71216 24.6017 2.97643 25.2397 3.44683 25.7101C3.91724 26.1805 4.55524 26.4448 5.22049 26.4448H22.7788C23.4441 26.4448 24.0821 26.1805 24.5525 25.7101C25.0229 25.2397 25.2872 24.6017 25.2872 23.9365V17.502C24.9061 17.7231 24.4735 17.8399 24.033 17.8406Z" fill="#F8285A" />
</svg>
