<svg width="24" height="24" viewBox="0 0 24 24" fill="none" xmlns="http://www.w3.org/2000/svg">
    <path fill-rule="evenodd" clip-rule="evenodd" d="M9.97109 9.29574H11.4312C11.6448 9.29574 11.8496 9.2109 12.0006 9.05989C12.1516 8.90889 12.2364 8.70408 12.2364 8.49052C12.2364 8.27696 12.1516 8.07215 12.0006 7.92115C11.8496 7.77014 11.6448 7.6853 11.4312 7.6853H9.97109C9.75753 7.6853 9.55272 7.77014 9.40171 7.92115C9.2507 8.07215 9.16587 8.27696 9.16587 8.49052C9.16587 8.70408 9.2507 8.90889 9.40171 9.05989C9.55272 9.2109 9.75753 9.29574 9.97109 9.29574ZM4.71014 9.29564H7.0399V9.31712C7.25346 9.31712 7.45827 9.23228 7.60927 9.08127C7.76028 8.93027 7.84512 8.72546 7.84512 8.5119C7.84512 8.29834 7.76028 8.09353 7.60927 7.94253C7.45827 7.79152 7.25346 7.70668 7.0399 7.70668H4.71014C4.59487 7.68767 4.47684 7.69397 4.36424 7.72514C4.25165 7.75631 4.14718 7.81161 4.0581 7.8872C3.96902 7.96279 3.89746 8.05686 3.84837 8.16288C3.79929 8.2689 3.77387 8.38433 3.77387 8.50116C3.77387 8.61799 3.79929 8.73343 3.84837 8.83945C3.89746 8.94547 3.96902 9.03954 4.0581 9.11513C4.14718 9.19072 4.25165 9.24602 4.36424 9.27719C4.47684 9.30836 4.59487 9.31466 4.71014 9.29564ZM7.04007 12.8064H4.71031C4.49675 12.8064 4.29194 12.7215 4.14094 12.5705C3.98993 12.4195 3.90509 12.2147 3.90509 12.0012C3.90509 11.7876 3.98993 11.5828 4.14094 11.4318C4.29194 11.2808 4.49675 11.1959 4.71031 11.1959H7.04007C7.25363 11.1959 7.45844 11.2808 7.60945 11.4318C7.76045 11.5828 7.84529 11.7876 7.84529 12.0012C7.84529 12.2147 7.76045 12.4195 7.60945 12.5705C7.45844 12.7215 7.25363 12.8064 7.04007 12.8064ZM9.00527 16.2957H11.3887C11.6023 16.2957 11.8071 16.2109 11.9581 16.0599C12.1091 15.9089 12.1939 15.7041 12.1939 15.4905C12.1939 15.277 12.1091 15.0722 11.9581 14.9211C11.8071 14.7701 11.6023 14.6853 11.3887 14.6853H9.00527C8.79171 14.6853 8.5869 14.7701 8.43589 14.9211C8.28488 15.0722 8.20005 15.277 8.20005 15.4905C8.20005 15.7041 8.28488 15.9089 8.43589 16.0599C8.5869 16.2109 8.79171 16.2957 9.00527 16.2957ZM11.4312 12.8065H9.97109C9.75753 12.8065 9.55272 12.7216 9.40171 12.5706C9.2507 12.4196 9.16587 12.2148 9.16587 12.0013C9.16587 11.7877 9.2507 11.5829 9.40171 11.4319C9.55272 11.2809 9.75753 11.196 9.97109 11.196H11.4312C11.6448 11.196 11.8496 11.2809 12.0006 11.4319C12.1516 11.5829 12.2364 11.7877 12.2364 12.0013C12.2364 12.2148 12.1516 12.4196 12.0006 12.5706C11.8496 12.7216 11.6448 12.8065 11.4312 12.8065ZM22.1987 15.4452C22.3067 15.7156 22.3586 16.0051 22.3512 16.2961L22.3405 16.994V19.4633C22.3423 19.9499 22.2357 20.4308 22.0284 20.8711C21.821 21.3113 21.5181 21.6998 21.1418 22.0083C20.7654 22.3168 20.325 22.5375 19.8527 22.6544C19.3803 22.7713 17.8878 22.7815 17.411 22.6842C16.6549 22.516 15.9802 22.0918 15.5008 21.4834C15.0215 20.875 14.7671 20.1196 14.7806 19.3452V17.0047V14.0952H20.1503C20.4413 14.0878 20.7308 14.1397 21.0012 14.2477C21.2715 14.3557 21.5171 14.5175 21.723 14.7234C21.9288 14.9293 22.0907 15.1748 22.1987 15.4452Z" fill="#F8285A" />
    <path opacity="0.3" d="M14.7912 19.4519V2.81075C14.7958 2.63525 14.7514 2.46194 14.663 2.31025C14.5746 2.15857 14.4457 2.03452 14.2907 1.95202C14.1357 1.86952 13.9608 1.83183 13.7856 1.84317C13.6104 1.85452 13.4419 1.91446 13.2988 2.01627L11.9997 2.8537C11.8409 2.95987 11.654 3.01653 11.4629 3.01653C11.2718 3.01653 11.085 2.95987 10.9261 2.8537L8.77888 1.41504C8.62051 1.3075 8.4335 1.25 8.24207 1.25C8.05064 1.25 7.86362 1.3075 7.70526 1.41504L5.61169 3.02548C5.45333 3.13302 5.26631 3.19052 5.07488 3.19052C4.88345 3.19052 4.69643 3.13302 4.53807 3.02548L3.1531 2.10216C3.00984 2.00199 2.84184 1.94304 2.6674 1.93172C2.49296 1.92041 2.31876 1.95716 2.16376 2.03798C2.00876 2.1188 1.8789 2.2406 1.78832 2.3901C1.69774 2.53961 1.6499 2.7111 1.65002 2.88591V5.03315V19.4519C1.65002 20.3232 1.99615 21.1588 2.61226 21.775C3.22837 22.3911 4.064 22.7372 4.93531 22.7372H18.0765C17.2051 22.7372 16.3695 22.3911 15.7534 21.775C15.1373 21.1588 14.7912 20.3232 14.7912 19.4519Z" fill="#F8285A" />
</svg>
