<svg width="24" height="24" viewBox="0 0 24 24" fill="none" xmlns="http://www.w3.org/2000/svg">
    <path fill-rule="evenodd" clip-rule="evenodd" d="M16.8712 6.46078C16.8712 9.47669 14.4263 11.9216 11.4104 11.9216C8.39446 11.9216 5.94958 9.47669 5.94958 6.46078C5.94958 3.44488 8.39446 1 11.4104 1C14.4263 1 16.8712 3.44488 16.8712 6.46078ZM15.5062 13.8168C16.233 13.3294 17.0883 13.0692 17.9634 13.0691C19.1242 13.069 20.2384 13.5263 21.0643 14.342C21.8903 15.1577 22.3616 16.2659 22.3762 17.4267C22.3871 18.3017 22.1376 19.1602 21.6594 19.8931C21.1812 20.626 20.496 21.2002 19.6907 21.5427C18.8854 21.8851 17.9964 21.9804 17.1368 21.8164C16.2772 21.6525 15.4858 21.2366 14.8631 20.6217C14.2405 20.0068 13.8147 19.2207 13.6399 18.3632C13.4651 17.5058 13.5492 16.6157 13.8815 15.8062C14.2138 14.9966 14.7793 14.3042 15.5062 13.8168ZM18.4378 19.247L20.3022 16.8641H20.258C20.3239 16.7793 20.3725 16.6824 20.401 16.5789C20.4295 16.4754 20.4373 16.3673 20.4239 16.2607C20.4106 16.1542 20.3765 16.0513 20.3234 15.958C20.2703 15.8646 20.1994 15.7827 20.1146 15.7168C20.0299 15.6508 19.933 15.6023 19.8294 15.5738C19.7259 15.5453 19.6178 15.5375 19.5113 15.5508C19.4047 15.5642 19.3018 15.5983 19.2085 15.6514C19.1152 15.7045 19.0332 15.7754 18.9673 15.8602L17.7538 17.4046L17.0588 16.5221C16.9271 16.3631 16.7401 16.26 16.5354 16.2334C16.3307 16.2068 16.1235 16.2587 15.9556 16.3787C15.7967 16.5104 15.6935 16.6974 15.6669 16.9021C15.6403 17.1067 15.6922 17.3139 15.8122 17.4819L17.147 19.2359C17.2235 19.3358 17.3221 19.4166 17.435 19.4721C17.5479 19.5276 17.6721 19.5563 17.7979 19.5559C17.9207 19.5544 18.0416 19.5259 18.1522 19.4725C18.2627 19.4192 18.3602 19.3422 18.4378 19.247Z" fill="#F8285A" />
    <path opacity="0.3" d="M21.1957 21.6399C20.9497 20.2641 20.3446 18.9778 19.4416 17.9111L18.4377 19.1908C18.3602 19.286 18.2627 19.363 18.1521 19.4164C18.0416 19.4697 17.9206 19.4982 17.7979 19.4997C17.6721 19.5001 17.5479 19.4715 17.435 19.416C17.3221 19.3605 17.2235 19.2796 17.147 19.1798L15.8121 17.4809C15.7247 17.3679 15.6694 17.2335 15.6519 17.0918C15.6344 16.9501 15.6555 16.8063 15.7129 16.6755C15.658 16.5479 15.6376 16.4082 15.6536 16.2703C15.6696 16.1324 15.7215 16.001 15.8041 15.8894C15.8867 15.7778 15.9971 15.6898 16.1244 15.6341C16.2516 15.5785 16.3912 15.5572 16.5292 15.5723C14.9477 14.7533 13.1914 14.3294 11.4104 14.3368C6.4571 14.3257 2.33117 17.4809 1.62513 21.6399C1.60879 21.8193 1.63155 22.0002 1.69183 22.17C1.7521 22.3398 1.84848 22.4945 1.9743 22.6235C2.10013 22.7524 2.25242 22.8526 2.42068 22.917C2.58894 22.9815 2.76917 23.0087 2.94896 22.9968H19.8829C20.0618 23.007 20.2408 22.9786 20.4077 22.9134C20.5746 22.8482 20.7255 22.7478 20.8501 22.619C20.9747 22.4902 21.0701 22.3361 21.1297 22.1671C21.1893 21.9982 21.2118 21.8183 21.1957 21.6399Z" fill="#F8285A" />
</svg>
